<?xml version="1.0" encoding="UTF-8" standalone="no"?>
<svg
   height="317.0488"
   viewBox="0 0 315.19051 297.23325"
   width="336.20322"
   version="1.1"
   id="svg46"
   sodipodi:docname="godot-icon_monochrome_dark.svg"
   inkscape:version="1.2.2 (732a01da63, 2022-12-09)"
   xmlns:inkscape="http://www.inkscape.org/namespaces/inkscape"
   xmlns:sodipodi="http://sodipodi.sourceforge.net/DTD/sodipodi-0.dtd"
   xmlns="http://www.w3.org/2000/svg"
   xmlns:svg="http://www.w3.org/2000/svg">
  <defs
     id="defs50" />
  <sodipodi:namedview
     id="namedview48"
     pagecolor="#ffffff"
     bordercolor="#000000"
     borderopacity="0.25"
     inkscape:showpageshadow="2"
     inkscape:pageopacity="0.0"
     inkscape:pagecheckerboard="0"
     inkscape:deskcolor="#d1d1d1"
     showgrid="false"
     inkscape:zoom="0.58104421"
     inkscape:cx="96.378209"
     inkscape:cy="387.23387"
     inkscape:window-width="1920"
     inkscape:window-height="1009"
     inkscape:window-x="1912"
     inkscape:window-y="-8"
     inkscape:window-maximized="1"
     inkscape:current-layer="svg46" />
  <path
     d="M 125.53711,0 C 111.1388,3.20088 96.89721,7.657986 83.5437,14.379272 c 0.30538,11.791233 1.06579,23.08887 2.61109,34.564818 -5.18589,3.322471 -10.636,6.17407 -15.47974,10.06348 -4.9215,3.7862 -9.94673,7.40785 -14.40308,11.83594 C 47.36917,64.95496 37.94577,59.42085 28.23853,54.536136 17.77487,65.79716 7.9923,77.95181 0,91.55273 c 6.2811,9.85952 13.01798,19.76887 19.25721,27.49695 v 67.1759 8.53272 7.7655 c 0.15269,9.4e-4 0.30466,0.006 0.45592,0.0202 l 51.17432,4.93469 c 2.6806,0.25873 4.78286,2.41688 4.96948,5.10315 l 1.57654,22.58972 44.64111,3.18603 3.07435,-20.85022 c 0.3987,-2.70322 2.71672,-4.70764 5.45104,-4.70764 h 53.99049 c 2.7329,0 5.05235,2.00442 5.45104,4.70764 l 3.07435,20.85022 44.64294,-3.18603 1.5747,-22.58972 c 0.18804,-2.68627 2.28892,-4.84302 4.96948,-5.10315 l 51.15418,-4.93469 c 0.15128,-0.0141 0.30325,-0.0188 0.45594,-0.0202 v -6.66138 l 0.0202,-0.006 V 119.04917 C 303.13941,109.97745 309.96252,99.97121 315.1905,91.55222 307.20101,77.9513 297.41197,65.79665 286.94831,54.535625 277.24387,59.42034 267.81767,64.95445 258.91486,70.843 c -4.45493,-4.42809 -9.47084,-8.04974 -14.39941,-11.83594 -4.84232,-3.88942 -10.30011,-6.74101 -15.47607,-10.063482 1.54099,-11.475567 2.30239,-22.773204 2.6092,-34.564437 C 218.29365,7.657986 204.05321,3.20088 189.64783,0 c -5.75141,9.666266 -11.01068,20.134834 -15.59143,30.368041 -5.4319,-0.90767 -10.89058,-1.244169 -16.35499,-1.309204 v -0.0092 c -0.0382,0 -0.0737,0.0092 -0.1062,0.0092 -0.0339,0 -0.0686,-0.0092 -0.10253,-0.0092 v 0.0092 c -5.4743,0.06504 -10.92718,0.401534 -16.36048,1.309204 C 136.55426,20.134834 131.297,9.666266 125.53711,0 Z M 85.05249,122.1112 c 17.03367,0 30.83862,13.79597 30.83862,30.82398 0,17.03931 -13.80495,30.84229 -30.83862,30.84229 -17.02518,0 -30.83679,-13.80298 -30.83679,-30.84229 0,-17.02801 13.81161,-30.82398 30.83679,-30.82398 z m 145.08911,0 c 17.02376,0 30.83313,13.79597 30.83313,30.82398 0,17.03931 -13.80937,30.84229 -30.83313,30.84229 -17.0365,0 -30.84228,-13.80298 -30.84228,-30.84229 0,-17.02801 13.80578,-30.82398 30.84228,-30.82398 z m -72.54822,18.03773 c 5.48278,0 9.93531,4.04496 9.93531,9.0216 v 28.39051 c 0,4.98088 -4.45253,9.0216 -9.93531,9.0216 -5.48278,0 -9.92614,-4.04072 -9.92614,-9.0216 v -28.39051 c 0,-4.97664 4.44336,-9.0216 9.92614,-9.0216 z"
     stroke-width="1.41382"
     id="path34"
     style="fill:#ffffff" />
  <g
     stroke-width="1.41382"
     id="g42"
     style="fill:#ffffff"
     transform="translate(-134.81323,-45)">
    <path
       d="m 384.81647,263.00158 -1.58489,22.71014 c -0.19086,2.73715 -2.36814,4.91584 -5.10529,5.11236 l -54.50971,3.88941 c -0.1329,0.01 -0.2658,0.0141 -0.39728,0.0141 -2.70888,0 -5.04592,-1.98783 -5.44603,-4.70801 l -3.12595,-21.19877 h -44.47726 l -3.12595,21.19877 c -0.41991,2.85308 -2.97043,4.90453 -5.84331,4.69387 l -54.50971,-3.88941 c -2.73715,-0.19652 -4.91442,-2.37521 -5.10529,-5.11236 l -1.58489,-22.71014 -46.01549,-4.43656 c 0.0212,4.94553 0.0848,10.36328 0.0848,11.44202 0,48.59854 61.64948,71.95763 138.24442,72.22625 h 0.0933 0.0947 c 76.59494,-0.26862 138.22322,-23.62771 138.22322,-72.22625 0,-1.09853 0.0664,-6.49366 0.0891,-11.44202 z"
       id="path36" />
    <path
       d="m 243.2842,199.7641 c 0,11.30205 -9.16012,20.46217 -20.47065,20.46217 -11.30488,0 -20.47066,-9.16012 -20.47066,-20.46217 0,-11.30205 9.16578,-20.47065 20.47066,-20.47065 11.31053,0 20.47065,9.1686 20.47065,20.47065"
       id="path38" />
    <path
       d="m 341.53502,199.7641 c 0,11.30205 9.15729,20.46217 20.45934,20.46217 11.31337,0 20.47066,-9.16012 20.47066,-20.46217 0,-11.30205 -9.15729,-20.47065 -20.47066,-20.47065 -11.30205,0 -20.45934,9.1686 -20.45934,20.47065"
       id="path40" />
  </g>
</svg>
