<?xml version="1.0" encoding="UTF-8" standalone="no"?>
<svg
   id="Layer_1"
   x="0px"
   y="0px"
   viewBox="0 0 623.67358 591.90004"
   xml:space="preserve"
   version="1.1"
   sodipodi:docname="GWJ-Full-Logo-noBG.svg"
   width="623.67358"
   height="591.90002"
   inkscape:version="1.2.2 (732a01da63, 2022-12-09)"
   xmlns:inkscape="http://www.inkscape.org/namespaces/inkscape"
   xmlns:sodipodi="http://sodipodi.sourceforge.net/DTD/sodipodi-0.dtd"
   xmlns="http://www.w3.org/2000/svg"
   xmlns:svg="http://www.w3.org/2000/svg"><defs
     id="defs35" /><sodipodi:namedview
     id="namedview33"
     pagecolor="#ffffff"
     bordercolor="#000000"
     borderopacity="0.25"
     inkscape:showpageshadow="2"
     inkscape:pageopacity="0.0"
     inkscape:pagecheckerboard="0"
     inkscape:deskcolor="#d1d1d1"
     showgrid="false"
     inkscape:zoom="1.0083932"
     inkscape:cx="312.37816"
     inkscape:cy="390.72062"
     inkscape:window-width="1920"
     inkscape:window-height="1009"
     inkscape:window-x="1912"
     inkscape:window-y="-8"
     inkscape:window-maximized="1"
     inkscape:current-layer="Layer_1" /><style
     type="text/css"
     id="style2">	.st0{fill:#F0624B;}	.st1{fill:#F1634C;}</style><path
     class="st0"
     d="m 540.78679,281.3 c 5.7,-12.7 7.8,-25.8 5.1,-34.3 -2.7,-8.5 -5.6,-12.6 -4.1,-19.2 1.5,-6.5 24.6,-13.2 34.3,-15.9 15.7,-4.3 29.6,-7.5 41.9,-8.3 5.8,-0.4 7.4,2.8 3.7,5.7 -5.9,4.6 -18.8,14.6 -32.9,23.9 -21.3,14.1 -17.3,32.8 -48,48.1 z m -22.9,-21.2 c -1.6,13 -17.1,39 -17.1,39 0,0 -1.1,-4.4 -1.8,-6.9 -0.7,-2.5 -2.6,-3 -2.6,-3 0,0 -5.9,23.1 -13.1,28.7 -16,12.3 -26.1,7.4 -42,42.1 -3.3,7.3 -0.5,22.7 -2.9,26.1 1.2,3.8 2.5,10.6 0.1,19.9 -7.9,-2.4 -22.7,-3.8 -22.7,-3.8 0,0 11.3,5.6 18.5,9.3 -0.7,3.8 -11.3,26.4 -14,28.7 -11.9,-4.5 -26.4,-7.3 -26.4,-7.3 0,0 10.3,6.5 21.6,13 -1.7,4.3 -15.9,21.6 -19.3,23.4 -9.9,-8.7 -23.4,-13.5 -23.4,-13.5 0,0 7.1,7.3 19.9,18.6 -14,10.8 -31.1,7.5 -44.1,4.8 -1.4,-0.3 -5.9,-9.1 -5.9,-9.1 0,0 -3.8,8.7 -13,2.4 -5.8,-4 -11.2,-11.6 -10.9,-19.5 0.3,-8.4 6.8,-19.3 27.2,-30.2 12.3,-6.7 18.2,-21.4 17.3,-38.5 0.8,-5.1 4.7,-32 7,-44.3 2.9,-15.2 10,-44.8 23.1,-63 10.9,-15.1 26.8,-22.3 54.7,-31.5 31.1,-10.3 50.1,-10.8 66.5,-12.5 0.1,-0.2 5.4,9.7 3.3,27.1 z m -66.5,26.8 c 7.7,-8.1 10.5,-18.2 10.5,-18.2 0,0 -25.5,5.4 -36,7 -18.2,2.8 -20.3,7.5 -26.7,16.1 -5,6.7 -5.5,11.6 -3.6,22.4 0.6,3.3 2.8,4.9 4.8,8.4 2.2,4 2.7,11.5 4,11.4 2,-0.2 9.5,-8 18,-10.3 14.5,-4.2 17.9,-25.2 29,-36.8 z m -34,35.3 c -7.2,0 -13,-6.7 -13,-14.9 0,-8.2 6,-13.3 13,-14.9 13,-2.9 11.5,5.6 13,14.9 1.3,8.1 -5.8,14.9 -13,14.9 z m -1.4,-11 c 0,-0.6 -0.5,-1.1 -1.1,-1.1 -0.6,0 -1.1,0.5 -1.1,1.1 0,0.6 0.5,1.1 1.1,1.1 0.6,0 1.1,-0.5 1.1,-1.1 z m 4.9,0.2 c 0,-1 -0.6,-1.8 -1.3,-1.8 -0.7,0 -1.3,0.8 -1.3,1.8 0,1 0.6,1.8 1.3,1.8 0.7,0 1.3,-0.9 1.3,-1.8 z m 0,-5.2 c 0,-2.1 -1.4,-3.9 -3.1,-3.9 -1.7,0 -3.1,1.7 -3.1,3.9 0,2.1 1.4,3.9 3.1,3.9 1.7,0 3.1,-1.7 3.1,-3.9 z m -338,-24.9 c -5.7,-12.7 -7.8,-25.8 -5.1,-34.3 2.6,-8.5 5.6,-12.6 4.1,-19.2 -1.5,-6.5 -24.6,-13.2 -34.3,-15.9 -15.7,-4.3 -29.6,-7.5 -41.9000005,-8.3 -5.79999999,-0.4 -7.4,2.8 -3.7,5.7 5.9,4.6 18.8000005,14.6 32.9000005,23.9 21.3,14.1 17.3,32.8 48,48.1 z m 26.1,-48.5 c 16.3,1.7 35.4,2.3 66.5,12.5 27.9,9.2 43.8,16.4 54.7,31.5 13.2,18.3 20.2,47.8 23.1,63 2.4,12.3 6.2,39.2 7,44.3 -0.9,17.2 5,31.9 17.3,38.5 20.3,11 26.9,21.9 27.2,30.2 0.3,7.9 -5.1,15.5 -10.9,19.5 -9.2,6.3 -13,-2.4 -13,-2.4 0,0 -4.5,8.8 -5.9,9.1 -13,2.7 -30.2,6 -44.1,-4.8 12.8,-11.3 19.9,-18.6 19.9,-18.6 0,0 -13.4,4.8 -23.4,13.5 -3.4,-1.8 -17.6,-19.1 -19.3,-23.4 11.3,-6.5 21.6,-13 21.6,-13 0,0 -14.5,2.8 -26.4,7.3 -2.7,-2.3 -13.3,-24.9 -14,-28.7 7.2,-3.7 18.5,-9.3 18.5,-9.3 0,0 -14.8,1.4 -22.7,3.8 -2.4,-9.3 -1.2,-16.1 0.1,-19.9 -2.4,-3.4 0.4,-18.8 -2.9,-26.1 -15.9,-34.7 -26,-29.8 -42,-42.1 -7.2,-5.6 -13.1,-28.7 -13.1,-28.7 0,0 -1.9,0.5 -2.6,3 -0.7,2.5 -1.8,6.9 -1.8,6.9 0,0 -15.5,-26 -17.1,-39 -2,-17.2 3.3,-27.1 3.3,-27.1 z m 92.3,90.8 c 8.4,2.4 16,10.1 18,10.3 1.3,0.1 1.8,-7.4 4,-11.4 1.9,-3.5 4.2,-5.1 4.8,-8.4 1.9,-10.8 1.3,-15.7 -3.6,-22.4 -6.4,-8.6 -8.5,-13.3 -26.7,-16.1 -10.4,-1.6 -36,-7 -36,-7 0,0 2.8,10.1 10.5,18.2 11.1,11.7 14.5,32.7 29,36.8 z m -8,-16.3 c 1.5,-9.3 0,-17.8 13,-14.9 7,1.6 13,6.7 13,14.9 0,8.2 -5.8,14.9 -13,14.9 -7.2,0 -14.3,-6.8 -13,-14.9 z m 15.5,5 c 0.6,0 1.1,-0.5 1.1,-1.1 0,-0.6 -0.5,-1.1 -1.1,-1.1 -0.6,0 -1.1,0.5 -1.1,1.1 0,0.6 0.5,1.1 1.1,1.1 z m -4.7,0.8 c 0.7,0 1.3,-0.8 1.3,-1.8 0,-1 -0.6,-1.8 -1.3,-1.8 -0.7,0 -1.3,0.8 -1.3,1.8 0,1 0.6,1.8 1.3,1.8 z m 1.8,-3 c 1.7,0 3.1,-1.7 3.1,-3.9 0,-2.1 -1.4,-3.9 -3.1,-3.9 -1.7,0 -3.1,1.7 -3.1,3.9 0,2.2 1.4,3.9 3.1,3.9 z m 145.9,75.9 c -3.5,-5.6 -10.4,-6.8 -20.8,-7.7 -9.4,-0.8 -19.2,-0.7 -19.2,-0.7 0,0 -9.8,0 -19.2,0.7 -10.3,0.8 -17.3,2.1 -20.8,7.7 -4,6.4 -5.8,19.9 16.9,34.9 1.1,0.8 1.8,-2.4 -1.6,-5.7 -5.4,-5.2 -8.2,-22 -4.8,-21.1 8.2,2.3 16.9,16.9 13.4,27.7 -0.9,2.8 5.7,8 8.6,9.2 4.6,1.8 7.4,1.8 7.4,1.8 0,0 2.8,0 7.4,-1.8 2.9,-1.1 9.5,-6.3 8.6,-9.2 -3.5,-10.9 5.3,-25.5 13.4,-27.7 3.4,-0.9 0.5,15.9 -4.8,21.1 -3.4,3.3 -2.7,6.4 -1.6,5.7 22.9,-14.9 21.1,-28.5 17.1,-34.9 z m 260.3,-143.8 c 1.5,14.8 -1.5,29 -4.3,31.1 -0.1,-5 -1.4,-8.8 -2.9,-11.8 -2.2,-4.3 -5,-6.1 -5,-6.1 0,0 3,12.6 -0.4,50.5 -2.2,24 -16.8,48.1 -16.8,48.1 0,0 0.4,-9.8 -3.5,-21.8 -3.2,-10.1 -10.8,-16.7 -10.8,-16.7 0,0 6.1,21 6.9,30.1 6.4,67.7 -46.7,103.4 -46.7,103.4 0,0 1.3,-8.2 -1.6,-22.9 -2.2,-11.4 -10.1,-17.9 -10.1,-17.9 4,8.1 6.5,27 0.9,38.9 -4.9,10.3 -11.4,14.8 -22.1,25.5 -11.9,11.8 -38.8,23 -38.8,23 0,0 1.6,-15.4 -0.6,-18.4 0.2,3.1 -7.1,21.1 -16,25.4 -8.2,3.9 -20.1,12.8 -25.7,22.9 1,-9.8 1.9,-18.6 3.5,-26.4 -12.2,17.3 -31.7,43 -51.5,55.8 1.4,-11.9 4.4,-18.7 0,-27.3 -2.5,22.1 -27.4,43.4 -27.4,43.4 0,0 5.3,-24 2.8,-36.2 -17.6,48.3 -30.2,57.1 -30.2,57.1 0,0 -12.6,-8.8 -30.2,-57.1 -2.6,12.2 2.8,36.2 2.8,36.2 0,0 -24.9,-21.3 -27.4,-43.4 -4.4,8.5 -1.4,15.3 0,27.3 -19.8,-12.8 -39.4,-38.5 -51.5,-55.8 1.5,7.8 2.4,16.6 3.5,26.4 -5.7,-10.1 -17.5,-19 -25.7,-22.9 -8.9,-4.3 -16.2,-22.3 -16,-25.4 -2.1,3 -0.6,18.4 -0.6,18.4 0,0 -26.9,-11.2 -38.8,-23 -10.8,-10.7 -17.2,-15.2 -22.1,-25.5 -5.7,-11.9 -3.1,-30.8 0.9,-38.9 0,0 -7.9,6.6 -10.1,17.9 -2.8,14.8 -1.6,22.9 -1.6,22.9 0,0 -53.1,-35.7 -46.7,-103.4 0.9,-9 6.9,-30.1 6.9,-30.1 0,0 -7.5,6.6 -10.8,16.7 -3.9,12 -3.5,21.8 -3.5,21.8 0,0 -14.7,-24.2 -16.8,-48.1 -3.4,-37.9 -0.4,-50.5 -0.4,-50.5 0,0 -2.8,1.8 -5,6.1 -1.5,3 -2.8,6.8 -2.9,11.8 -2.8,-2.1 -5.8000005,-16.3 -4.3,-31.1 1.2,-11.2 4.8,-13.3 4.8,-13.3 0,0 17.7,9.5 26.5,25.5 17.4,31.6 43.9,37.6 51.4,40 0.9,-6.8 -11.9,-28.9 -9,-44.5 2.5,-13.7 10.8,-14.4 3.6,-27.2 -4.3,-7.7 -22.3,-13.9 -38.9,-18.2 -4.1,-0.9 -12.2,-2.7 -14.9,-3.3 -10.2,-2.3 -16.7,-2.7 -21.7,-9 -4.6000005,-5.8 -3.4000005,-11.6 -3.4000005,-11.6 0,0 10.1000005,4.3 20.5000005,-2.5 13.5,-8.7 -2.9,-23.2 20.2,-43.9 14.3,-12.8 33,-10.1 33,-10.1 0,0 -11.3,-7.4 -24.6,-6.8 -12.3,0.6 -21.6,3 -34.8,19 7,-32.4 22.8,-43.9 39.3,-52.7 15.3,-8.2 39.9,-10.7 56.5,-9.3 0,0 -6.2,-8.3 -17.3,-11.9 -15.2,-4.9 -25.1,-3.6 -32.7,-0.9 5.7,-10.9 26,-20.9 53.9,-22.6 33,-2 60.7,9.6 60.7,9.6 0,0 1.9,-5.6 -9.2,-12.3 -13.8,-8.3 -31.7,-9.6 -39.1,-7 4.9,-6.2 25.5,-16.6 63,-10.8 23.1,3.6 33,7.7 33,7.7 0,0 -0.4,-6.5 -5.8,-10.8 -5.2,-4.1 -11.8,-6 -17.5,-7 3.7,-2.7 25.1,-4.9 46,-6.4 26.3,-1.9 57,-1.9 57,-1.9 0,0 30.7,0 57,1.9 20.8,1.5 42.2,3.7 46,6.4 -5.7,0.9 -12.3,2.9 -17.5,7 -5.5,4.3 -5.8,10.8 -5.8,10.8 0,0 10,-4.2 33,-7.7 37.4,-5.8 58.1,4.5 63,10.8 -7.5,-2.6 -25.3,-1.3 -39.1,7 -11.1,6.7 -9.2,12.3 -9.2,12.3 0,0 27.7,-11.6 60.7,-9.6 27.9,1.7 48.3,11.7 53.9,22.6 -7.7,-2.7 -17.6,-4.1 -32.7,0.9 -11.5,3.7 -17.7,11.9 -17.7,11.9 16.6,-1.4 41.2,1.1 56.5,9.3 16.4,8.8 32.2,20.3 39.3,52.7 -13.2,-16 -22.5,-18.5 -34.8,-19 -13.3,-0.6 -24.6,6.8 -24.6,6.8 0,0 18.7,-2.7 33,10.1 23.1,20.7 6.8,35.2 20.2,43.9 10.5,6.7 20.5,2.5 20.5,2.5 0,0 1.2,5.8 -3.4,11.6 -5,6.4 -11.5,6.7 -21.7,9 -2.6,0.6 -10.8,2.4 -14.9,3.3 -16.6,4.2 -34.5,10.4 -38.9,18.2 -7.2,12.9 1.1,13.5 3.6,27.2 2.8,15.6 -10,37.7 -9,44.5 7.5,-2.4 34,-8.4 51.4,-40 8.8,-16 26.5,-25.5 26.5,-25.5 0,0 3.7,2.1 4.8,13.3 z m -258.9,-87.3 h 0.7 c 2.4,-10.1 4.4,-20 6.6,-29.9 2.3,-9.8 3.7,-19.9 6.8,-29.5 2.8,-9.6 7.3,-18.7 12.9,-27.1 5.6,-8.4 12.2,-16.3 19.9,-23 l -0.4,-0.5 c -8.4,6.1 -15.7,13.4 -22.2,21.6 -6.3,8.2 -11.6,17.5 -15.2,27.3 -3.7,9.7 -6.9,19.7 -8.3,30 -1.5,10.3 -2.1,20.7 -0.8,31.1 z m -20,144.7 0.7,0.1 c 4.3,-19 9.3,-37.7 15.3,-56 6,-18.3 12.4,-36.5 21.3,-53.6 9,-16.9 21.1,-32.2 34.7,-45.8 13.6,-13.7 28.7,-26.1 45.1,-36.5 l -0.3,-0.6 c -16.9,9.7 -32.6,21.5 -47.1,34.7 -14.3,13.3 -27.1,28.5 -37.1,45.6 -9.7,17.1 -17.7,35.3 -23,54.2 -2.6,9.5 -4.9,19 -6.5,28.7 -1.6,9.7 -2.8,19.4 -3.1,29.2 z m -109.4,-254.1 c 7.7,6.7 14.3,14.6 19.9,23 5.6,8.4 10,17.5 12.9,27.1 3,9.6 4.5,19.6 6.8,29.5 2.2,9.9 4.2,19.8 6.6,29.9 h 0.7 c 1.2,-10.4 0.6,-20.8 -0.7,-31.1 -1.4,-10.3 -4.6,-20.3 -8.3,-30 -3.6,-9.8 -8.9,-19.1 -15.2,-27.3 -6.5,-8.1 -13.8,-15.5 -22.2,-21.6 z m -50.4,62.2 c 16.4,10.4 31.5,22.8 45.1,36.5 13.7,13.6 25.7,29 34.7,45.8 8.8,17.1 15.3,35.3 21.3,53.6 6,18.3 11,37 15.3,56 l 0.7,-0.1 c -0.3,-9.8 -1.5,-19.5 -3.2,-29.2 -1.6,-9.7 -3.9,-19.2 -6.5,-28.7 -5.3,-18.9 -13.3,-37.1 -23,-54.2 -10,-17.1 -22.8,-32.3 -37.1,-45.6 -14.4,-13.2 -30.1,-25 -47.1,-34.7 z m -71.5,50.3 c 12.5,2.9 24.6,7.2 35.6,13.4 11.2,6 20.5,14.7 30,23.1 9.5,8.5 18.5,17.6 27.6,26.9 l 0.5,-0.4 c -3.1,-5.8 -6.7,-11.3 -10.7,-16.5 -3.9,-5.2 -8.3,-10.2 -12.9,-14.9 -9.2,-9.4 -20.3,-17.1 -32.2,-22.9 -11.8,-5.9 -24.6,-9.7 -37.4,-12 -12.9,-2.1 -26,-2.8 -39,-1.4 l 0.1,0.7 c 13,-0.4 26,1.2 38.4,4 z m 235,346.3 c -4.3,1.2 -8.4,1.2 -12.6,1.5 -4.2,0.1 -8.3,0.1 -12.5,0 0,0 0,0 0,0 0,0 0,0 0,0 -4.2,0 -8.3,0.1 -12.5,0 -4.2,-0.2 -8.3,-0.2 -12.6,-1.5 1.4,1.9 3.4,3.1 5.4,4.1 2.1,1 4.2,1.8 6.4,2.3 4.4,1.2 8.8,1.6 13.3,1.7 0,0 0,0 0,0 0,0 0,0 0,0 4.4,0 8.9,-0.5 13.3,-1.7 2.2,-0.5 4.3,-1.4 6.4,-2.3 2,-1 4,-2.2 5.4,-4.1 z m 184.2,-279.1 c -18.7,0.3 -29.1,1.3 -48.6,4.9 -29,5.4 -40.5,10.7 -62,20.3 -20.3,9.1 -33.5,25.4 -39.5,49.3 -1.1,4.2 -2.2,8.9 -3.3,14 0,0.1 0,0.2 -0.1,0.3 -0.2,1.1 -0.5,2.1 -0.7,3.2 -0.1,0.3 -0.1,0.5 -0.2,0.8 -0.2,1 -0.4,2 -0.6,3 0,0.2 -0.1,0.4 -0.1,0.6 -0.3,1.2 -0.5,2.4 -0.8,3.7 0,0.1 -0.1,0.3 -0.1,0.4 -0.2,1.1 -0.5,2.2 -0.7,3.4 -5,24.2 -9.3,48.8 -9.3,48.8 0,0 -2.1,-2.6 -5.6,-3.7 3.3,-22.7 -0.7,-40.1 -0.7,-40.1 0,0 -2.9,35.3 -5.1,38.7 -4,-0.7 -6.2,-0.5 -10.1,-0.8 -4.4,-0.3 -7.2,-0.3 -11,-0.5 0.5,-5.4 -1.6,-9.5 -1.6,-9.5 0,0 -1.7,9.4 -2.4,9.5 -3.3,0.1 -6.8,-0.1 -6.8,-0.1 v 0 c 0,0 -3.5,0.1 -6.8,0.1 -0.7,0 -2.4,-9.5 -2.4,-9.5 0,0 -2.2,4.1 -1.6,9.5 -3.8,0.2 -6.6,0.2 -11,0.5 -3.9,0.3 -6,0 -10.1,0.8 -2.2,-3.4 -5.1,-38.7 -5.1,-38.7 0,0 -4,17.3 -0.7,40.1 -3.5,1.2 -5.6,3.7 -5.6,3.7 0,0 -4.3,-24.5 -9.3,-48.8 -0.2,-1.1 -0.5,-2.2 -0.7,-3.4 0,-0.1 -0.1,-0.3 -0.1,-0.4 -0.3,-1.2 -0.5,-2.4 -0.8,-3.7 0,-0.2 -0.1,-0.4 -0.1,-0.6 -0.2,-1 -0.4,-2 -0.6,-3 -0.1,-0.3 -0.1,-0.5 -0.2,-0.8 -0.2,-1.1 -0.5,-2.2 -0.7,-3.2 0,-0.1 0,-0.2 -0.1,-0.3 -1.1,-5 -2.2,-9.7 -3.3,-14 -6,-23.9 -19.2,-40.2 -39.5,-49.3 -21.5,-9.6 -33,-15 -62,-20.3 -19.6,-3.6 -29.9,-4.6 -48.6,-4.9 -10.4,25.9 -4.8,50.7 12.1,76.2 7.2,10.9 9.5,21.1 18.7,31.3 1.8,2 18.6,7 21.9,10 3.3,3 21.1,46 19.7,59.8 0.5,1.9 1,3.9 1.6,6 -4.6,1.3 -13.8,4 -22.9,7 -21.9,7.3 -43,17.8 -42,18 0,0 25.6,-7.2 40.8,-11.9 11.6,-3.6 21,-5.7 26,-6.6 2.9,9.3 6.8,19.8 11.9,29.6 -2.2,0.9 -4.9,2 -8.3,3.5 -14.8,6.5 -36,21 -36,21 0,0 17.5,-6.9 38.1,-14.1 4,-1.4 7.3,-2.5 10.1,-3.4 2.5,4.1 5.2,8 8.2,11.5 2.9,3.4 7.1,8.8 13.1,14.7 -1.7,1.1 -3.4,2.3 -4.6,3.2 -4.8,3.7 -19.5,17.6 -19.5,17.6 0,0 14.9,-8.2 20.6,-11.6 2.8,-1.7 5.6,-3.5 8,-5.1 6.5,5.7 14.8,11.5 25.5,16.1 13.6,5.9 23.3,-4 35.5,-8.7 12.8,-4.9 22.8,-8.6 22.8,-8.6 l 7.8,-0.8 7.8,0.8 c 0,0 9.9,3.6 22.8,8.6 12.2,4.7 21.9,14.7 35.5,8.7 10.7,-4.7 19,-10.5 25.5,-16.1 2.4,1.6 5.1,3.3 8,5.1 5.6,3.5 20.6,11.6 20.6,11.6 0,0 -14.7,-13.9 -19.5,-17.6 -1.2,-0.9 -2.9,-2.1 -4.6,-3.2 6,-5.9 10.2,-11.3 13.1,-14.7 3,-3.4 5.7,-7.3 8.2,-11.5 2.8,0.9 6.1,2 10.1,3.4 20.6,7.2 38.1,14.1 38.1,14.1 0,0 -21.2,-14.5 -36,-21 -3.4,-1.5 -6.1,-2.6 -8.3,-3.5 5,-9.8 9,-20.3 11.9,-29.6 5,1 14.4,3 26,6.6 15.2,4.7 40.8,11.9 40.8,11.9 1,-0.2 -20.1,-10.7 -42,-18 -9.1,-3.1 -18.3,-5.7 -22.9,-7 0.6,-2.1 1.1,-4.2 1.6,-6 -1.4,-13.8 16.5,-56.9 19.7,-59.8 3.3,-3 20.1,-8 21.9,-10 9.2,-10.3 11.5,-20.5 18.7,-31.3 17.3,-25.6 22.9,-50.3 12.5,-76.2 z m 38.9,-71.1 0.1,-0.7 c -13,-1.3 -26.1,-0.6 -39,1.4 -12.9,2.3 -25.6,6.1 -37.4,12 -11.9,5.8 -23,13.5 -32.2,22.9 -4.6,4.7 -8.9,9.6 -12.9,14.9 -4,5.2 -7.6,10.7 -10.7,16.5 l 0.5,0.4 c 9.1,-9.3 18.1,-18.4 27.6,-26.9 9.5,-8.4 18.9,-17.1 30,-23.1 11,-6.3 23.2,-10.6 35.6,-13.4 12.6,-2.9 25.6,-4.5 38.4,-4 z"
     id="path4" /></svg>
